<svg id="Layer_1" data-name="Layer 1" xmlns="http://www.w3.org/2000/svg" viewBox="0 0 228.39 57.63"><defs><style>.cls-1{fill:#e1ecf3;}</style></defs><title>stackoverflow</title><path class="cls-1" d="M64.69,32.91l-2-.18c-1.65-.09-2.29-0.82-2.29-1.83,0-1.28,1-2.11,2.84-2.11a5.1,5.1,0,0,1,3.39,1l1.19-1.19a6.8,6.8,0,0,0-4.58-1.37c-2.75,0-4.76,1.37-4.76,3.76,0,2.11,1.37,3.21,3.85,3.48l2.11,0.18c1.47,0.09,2.11.73,2.11,1.83,0,1.47-1.28,2.29-3.39,2.29a5.51,5.51,0,0,1-4-1.47l-1.28,1.28a7.4,7.4,0,0,0,5.31,1.83c3.11,0,5.22-1.47,5.22-3.94S66.89,33.1,64.69,32.91Zm16-5.77c-2,0-3.39.37-4.49,1.83l1.19,1.19c0.73-1.1,1.56-1.47,3.21-1.47,2.38,0,3.3.92,3.3,2.84v1.28H80.07c-2.84,0-4.4,1.47-4.4,3.66a3.91,3.91,0,0,0,.92,2.66,4.64,4.64,0,0,0,3.66,1.19A4.51,4.51,0,0,0,83.92,39v1.28h1.83v-8.7C85.84,28.61,84.2,27.14,80.72,27.14ZM84,35.57a3.13,3.13,0,0,1-.64,2.2,3.62,3.62,0,0,1-2.84.82c-2,0-2.93-.73-2.93-2.2s0.92-2.29,2.84-2.29H84v1.47Zm9.25-6.78a3.34,3.34,0,0,1,2.93,1.47l1.28-1.19a4.93,4.93,0,0,0-4.21-1.83c-3.21,0-5.68,2.2-5.68,6.59s2.47,6.59,5.68,6.59a5,5,0,0,0,4.21-1.92l-1.28-1.19a3.69,3.69,0,0,1-2.93,1.47,3.14,3.14,0,0,1-2.93-1.47,7.57,7.57,0,0,1,0-6.87,3.2,3.2,0,0,1,2.93-1.65h0Zm16-1.47h-2.38L101.14,33V21.56H99.31V40.15h1.83V35.48l2.29-2.29,4.3,7H110l-5.31-8.24Zm8.79-.64A5.31,5.31,0,0,0,114,28.24c-1.19,1.28-1.56,2.75-1.56,5.22s0.27,3.94,1.56,5.22a6,6,0,0,0,8.24,0c1.19-1.28,1.56-2.75,1.56-5.22s-0.27-3.94-1.56-5.22a5.19,5.19,0,0,0-4.12-1.56h0Zm1.56,10.08a2.05,2.05,0,0,1-1.56.55,2.49,2.49,0,0,1-1.56-.55c-0.73-.73-0.73-1.83-0.73-3.3s0.09-2.56.73-3.21a1.94,1.94,0,0,1,1.56-.55,2.31,2.31,0,0,1,1.56.55c0.73,0.73.73,1.83,0.73,3.21s0,2.56-.73,3.3h0Zm13-10L130,35l-2.75-8.24h-3.48l4.95,13.37h2.66l4.85-13.37h-3.57Zm9.16-.09c-3.48,0-5.86,2.47-5.86,6.78,0,5.4,3,6.87,6.23,6.87a6.22,6.22,0,0,0,5-2.11l-2-2a3.71,3.71,0,0,1-3,1.28,2.71,2.71,0,0,1-2.93-2.56V34.47h8.33V33c0.09-3.66-2-6.41-5.77-6.32h0Zm-2.56,5.59a4.15,4.15,0,0,1,.27-1.47,2.46,2.46,0,0,1,3.3-1.1,2.55,2.55,0,0,1,1.1,1.1,3.8,3.8,0,0,1,.27,1.47h-4.95Zm13.28-4.21V26.78h-3.3V40.15h3.3V32.09a2.31,2.31,0,0,1,1.92-2.47h0.18a2.26,2.26,0,0,1,1.74.82l2.56-2.56a4.36,4.36,0,0,0-3.11-1.28,4.92,4.92,0,0,0-3.3,1.47h0Zm7.6-2.66V40.15h3.3V29.62h2.47V27.05h-2.47V25.59a1,1,0,0,1,.92-1.19h1.56V21.56H164A3.68,3.68,0,0,0,160.13,25V25.4h0Zm19.51,1.19a5.39,5.39,0,0,0-4.12,1.65C174.32,29.52,174,31,174,33.46s0.27,3.94,1.56,5.22a6,6,0,0,0,8.24,0c1.19-1.28,1.56-2.75,1.56-5.22s-0.27-3.94-1.56-5.22a5.59,5.59,0,0,0-4.12-1.65h0Zm1.56,10.08a2.05,2.05,0,0,1-1.56.55,2.49,2.49,0,0,1-1.56-.55c-0.73-.73-0.73-1.83-0.73-3.3s0.09-2.56.73-3.21a1.94,1.94,0,0,1,1.56-.55,2.31,2.31,0,0,1,1.56.55c0.73,0.73.73,1.83,0.73,3.21s0,2.66-.73,3.3h0Zm19.88-9.89L199,35l-2.75-8.24h-2.47L191,35l-2.11-8.24h-3.48l4.12,13.37h2.75L195,31.72l2.75,8.43h2.75l4.12-13.37h-3.57Zm-30.23,9.34V21.56h-3.3V36.3A3.68,3.68,0,0,0,171,40.15h2.29V37.31H172a1,1,0,0,1-1.19-.92V36.12h0ZM73.66,29.34L75.4,27.6H71.83V23.39H70V36.67a3,3,0,0,0,2.84,3.39h1.83V38.41h-1a1.57,1.57,0,0,1-1.74-1.47V29.25l1.74,0.09h0Z"/><polygon class="cls-1" points="49.02 43.26 49.02 33.83 52.23 33.83 52.23 46.47 23.75 46.47 23.75 33.83 26.86 33.83 26.86 43.26 49.02 43.26"/><path class="cls-1" d="M30.34,32.91l15.48,3.3,0.64-3.11L31,29.8Zm2.11-7.42,14.38,6.69,1.37-2.84L33.82,22.66Zm3.94-7.05L48.57,28.61l2-2.47L38.4,16Zm7.88-7.51L41.7,12.86l9.43,12.73,2.56-1.92ZM30.06,40.15H45.91V36.94H30.06v3.21Z"/></svg>